<svg width="41" height="41" viewBox="0 0 41 41" fill="none" xmlns="http://www.w3.org/2000/svg">
<path d="M22.1155 20.3402L34.982 7.46727C35.4616 6.97049 35.4479 6.17871 34.9513 5.69886C34.4669 5.23075 33.6989 5.23075 33.2145 5.69886L20.3479 18.5718L7.4814 5.69886C6.98481 5.21902 6.19348 5.2328 5.71388 5.72958C5.246 6.21423 5.246 6.98262 5.71388 7.46727L18.5804 20.3402L5.71388 33.2132C5.22591 33.7016 5.22591 34.4933 5.71388 34.9816C6.20204 35.4698 6.9933 35.4698 7.4814 34.9816L20.3479 22.1086L33.2144 34.9816C33.7026 35.4698 34.4938 35.4698 34.9819 34.9816C35.4699 34.4932 35.4699 33.7015 34.9819 33.2132L22.1155 20.3402Z" fill="white"/>
</svg>
