<svg width="15" height="22" viewBox="0 0 15 22" fill="none" xmlns="http://www.w3.org/2000/svg">
<path d="M7.75 5C8.57843 5 9.25 4.32843 9.25 3.5C9.25 2.67157 8.57843 2 7.75 2C6.92157 2 6.25 2.67157 6.25 3.5C6.25 4.32843 6.92157 5 7.75 5Z" fill="white"/>
<path d="M7.75 12.5001C8.57843 12.5001 9.25 11.8285 9.25 11.0001C9.25 10.1717 8.57843 9.50012 7.75 9.50012C6.92157 9.50012 6.25 10.1717 6.25 11.0001C6.25 11.8285 6.92157 12.5001 7.75 12.5001Z" fill="white"/>
<path d="M7.75 19.9999C8.57843 19.9999 9.25 19.3283 9.25 18.4999C9.25 17.6715 8.57843 16.9999 7.75 16.9999C6.92157 16.9999 6.25 17.6715 6.25 18.4999C6.25 19.3283 6.92157 19.9999 7.75 19.9999Z" fill="white"/>
</svg>
