<svg width="16" height="16" viewBox="0 0 16 16" fill="none" xmlns="http://www.w3.org/2000/svg">
<g clip-path="url(#clip0_143_1224)">
<path d="M0 2V7.33333H7.33333V0H2C1.46957 0 0.960859 0.210714 0.585787 0.585787C0.210714 0.960859 0 1.46957 0 2Z" fill="url(#paint0_linear_143_1224)"/>
<path d="M14.0001 0H8.66675V7.33333H16.0001V2C16.0001 1.46957 15.7894 0.960859 15.4143 0.585787C15.0392 0.210714 14.5305 0 14.0001 0Z" fill="url(#paint1_linear_143_1224)"/>
<path d="M0 14.0001C0 14.5305 0.210714 15.0392 0.585787 15.4143C0.960859 15.7894 1.46957 16.0001 2 16.0001H7.33333V8.66675H0V14.0001Z" fill="url(#paint2_linear_143_1224)"/>
<path d="M8.66675 16.0001H14.0001C14.5305 16.0001 15.0392 15.7894 15.4143 15.4143C15.7894 15.0392 16.0001 14.5305 16.0001 14.0001V8.66675H8.66675V16.0001Z" fill="url(#paint3_linear_143_1224)"/>
</g>
<defs>
<linearGradient id="paint0_linear_143_1224" x1="0" y1="0" x2="7.33333" y2="7.33333" gradientUnits="userSpaceOnUse">
<stop stop-color="#FF9600"/>
<stop offset="1" stop-color="#A20FD2"/>
</linearGradient>
<linearGradient id="paint1_linear_143_1224" x1="8.66675" y1="0" x2="16.0001" y2="7.33333" gradientUnits="userSpaceOnUse">
<stop stop-color="#FF9600"/>
<stop offset="1" stop-color="#A20FD2"/>
</linearGradient>
<linearGradient id="paint2_linear_143_1224" x1="0" y1="8.66675" x2="7.33333" y2="16.0001" gradientUnits="userSpaceOnUse">
<stop stop-color="#FF9600"/>
<stop offset="1" stop-color="#A20FD2"/>
</linearGradient>
<linearGradient id="paint3_linear_143_1224" x1="8.66675" y1="8.66675" x2="16.0001" y2="16.0001" gradientUnits="userSpaceOnUse">
<stop stop-color="#FF9600"/>
<stop offset="1" stop-color="#A20FD2"/>
</linearGradient>
<clipPath id="clip0_143_1224">
<rect width="16" height="16" fill="white"/>
</clipPath>
</defs>
</svg>
