<svg width="18" height="22" viewBox="0 0 18 22" fill="none" xmlns="http://www.w3.org/2000/svg">
<path d="M10.6667 21.7C4.82163 21.7 0.0666504 16.945 0.0666504 11.1C0.0666504 5.25498 4.82163 0.5 10.6667 0.5C12.443 0.5 14.2115 0.960217 15.7812 1.83207L16.4666 2.21367L15.7856 2.60233C12.6754 4.37783 10.6667 7.54017 10.6667 10.6583C10.6667 14.6325 13.6294 17.7471 16.5664 19.0712L17.2828 19.3945L16.6353 19.8379C14.8581 21.0561 12.7946 21.6991 10.6675 21.6991L10.6667 21.7ZM10.6667 1.38333C5.30923 1.38333 0.949984 5.74258 0.949984 11.1C0.949984 16.4574 5.30923 20.8167 10.6667 20.8167C12.3609 20.8167 14.0118 20.3706 15.4852 19.5199C12.542 17.9193 9.78332 14.6987 9.78332 10.6583C9.78332 7.46597 11.6754 4.24357 14.6629 2.25695C13.4059 1.68367 12.0385 1.38333 10.6667 1.38333Z" fill="white" fill-opacity="0.4"/>
</svg>
