<svg width="4" height="19" viewBox="0 0 4 19" fill="none" xmlns="http://www.w3.org/2000/svg">
<path d="M1.75 3.36353C2.57843 3.36353 3.25 2.69195 3.25 1.86353C3.25 1.0351 2.57843 0.363525 1.75 0.363525C0.921573 0.363525 0.25 1.0351 0.25 1.86353C0.25 2.69195 0.921573 3.36353 1.75 3.36353Z" fill="white"/>
<path d="M1.75 10.8638C2.57843 10.8638 3.25 10.1922 3.25 9.36377C3.25 8.53534 2.57843 7.86377 1.75 7.86377C0.921573 7.86377 0.25 8.53534 0.25 9.36377C0.25 10.1922 0.921573 10.8638 1.75 10.8638Z" fill="white"/>
<path d="M1.75 18.3635C2.57843 18.3635 3.25 17.692 3.25 16.8635C3.25 16.0351 2.57843 15.3635 1.75 15.3635C0.921573 15.3635 0.25 16.0351 0.25 16.8635C0.25 17.692 0.921573 18.3635 1.75 18.3635Z" fill="white"/>
</svg>
