<svg width="55" height="57" viewBox="0 0 55 57" fill="none" xmlns="http://www.w3.org/2000/svg">
<path d="M24.2671 1.19435C26.213 -0.129561 28.787 -0.129561 30.7329 1.19435L52.5432 16.0338C54.0815 17.0806 54.9999 18.8055 55 20.6476V51.3924L54.9926 51.6808C54.8451 54.5475 52.5123 56.8464 49.603 56.9916L49.3103 56.999C47.7391 56.999 46.4655 55.7439 46.4655 54.1957V23.5896C46.4655 22.6686 46.0066 21.8061 45.2376 21.2827L29.1169 10.3141C28.144 9.65207 26.856 9.65207 25.8831 10.3141L9.76241 21.2827C8.99339 21.8061 8.53452 22.6686 8.53448 23.5896V45.7859C8.53448 47.334 9.80811 48.5891 11.3793 48.5891H25.2515C25.9092 48.5782 26.1452 48.0449 26.1452 47.3882V28.2005C26.1455 26.9856 26.9401 25.9088 28.1131 25.5341L37.0541 22.6788C38.8914 22.0922 40.7754 23.4421 40.7759 25.3453V49.4742C40.7759 50.6303 40.0552 51.6678 38.9617 52.0868L26.5045 56.8612C26.2672 56.9521 26.0145 56.999 25.7599 56.999C25.742 56.999 25.7241 56.9966 25.7062 56.9962C25.6721 56.9974 25.6379 56.999 25.6034 56.999H5.68966L5.39703 56.9916C2.48772 56.8464 0.154919 54.5475 0.00740841 51.6808L0 51.3924V20.6476C5.19977e-05 18.8055 0.918535 17.0806 2.45681 16.0338L24.2671 1.19435ZM31.2375 38.3105C30.4059 38.3105 29.731 38.9747 29.7308 39.7941V41.4979C29.7308 42.3175 30.4057 42.9826 31.2375 42.9826C32.0693 42.9824 32.7433 42.3175 32.7433 41.4979V39.7941C32.7431 38.9747 32.0691 38.3106 31.2375 38.3105Z" fill="white"/>
</svg>
