<svg width="120" height="50" viewBox="0 0 120 50" fill="none" xmlns="http://www.w3.org/2000/svg">
<g clip-path="url(#clip0_25_75)">
<path d="M21.5376 1.04766C23.2645 -0.113659 25.549 -0.113659 27.276 1.04766L46.6331 14.0648C47.9984 14.983 48.8135 16.4961 48.8136 18.1119V45.0811L48.807 45.334C48.676 47.8487 46.6057 49.8652 44.0236 49.9926L43.7639 49.9991C42.3694 49.9991 41.239 48.8981 41.239 47.5401V20.6926C41.239 19.8848 40.8318 19.1281 40.1492 18.669L25.8418 9.04746C24.9783 8.46672 23.8352 8.46672 22.9717 9.04746L8.66432 18.669C7.98181 19.1281 7.57455 19.8848 7.57452 20.6926V40.163C7.57452 41.5211 8.70489 42.622 10.0994 42.622H22.4112C22.9949 42.6125 23.2044 42.1447 23.2044 41.5686V24.7373C23.2046 23.6716 23.9099 22.727 24.9509 22.3984L32.8862 19.8937C34.5169 19.3791 36.1889 20.5633 36.1894 22.2327V43.3984C36.1894 44.4125 35.5497 45.3226 34.5793 45.6902L23.5233 49.8782C23.3127 49.9579 23.0884 49.9991 22.8624 49.9991C22.8465 49.9991 22.8306 49.997 22.8148 49.9966C22.7845 49.9977 22.7541 49.9991 22.7236 49.9991H5.04968L4.78997 49.9926C2.2079 49.8652 0.137493 47.8487 0.0065751 45.334L0 45.0811V18.1119C4.61489e-05 16.4961 0.815218 14.983 2.18047 14.0648L21.5376 1.04766ZM27.7239 33.6057C26.9858 33.6057 26.3868 34.1884 26.3867 34.9071V36.4016C26.3867 37.1206 26.9857 37.704 27.7239 37.704C28.4621 37.7039 29.0603 37.1206 29.0603 36.4016V34.9071C29.0601 34.1884 28.4619 33.6057 27.7239 33.6057Z" fill="white"/>
</g>
<path d="M56.4101 31V16.8594H61.9569C65.1698 16.8594 67.0155 18.666 67.0155 21.4688C67.0155 23.4023 66.1269 24.8086 64.5155 25.502L67.5233 31H64.2812L61.5761 25.9805H59.3397V31H56.4101ZM59.3397 23.5977H61.4101C63.1483 23.5977 63.9979 22.8848 63.9882 21.4688C63.9979 20.043 63.1483 19.2715 61.4101 19.2617H59.3397V23.5977ZM81.996 23.9297C81.996 28.5488 79.1347 31.1953 75.3944 31.1953C71.6249 31.1953 68.7733 28.5293 68.7733 23.9297C68.7733 19.3105 71.6249 16.6641 75.3944 16.6641C79.1347 16.6641 81.996 19.3105 81.996 23.9297ZM71.7616 23.9297C71.7616 26.9473 73.1972 28.5879 75.3944 28.5977C77.5722 28.5879 79.0175 26.9473 79.0077 23.9297C79.0175 20.9023 77.5722 19.2715 75.3944 19.2617C73.1972 19.2715 71.7616 20.9023 71.7616 23.9297ZM97.0546 23.9297C97.0546 28.5488 94.1933 31.1953 90.453 31.1953C86.6835 31.1953 83.8319 28.5293 83.8319 23.9297C83.8319 19.3105 86.6835 16.6641 90.453 16.6641C94.1933 16.6641 97.0546 19.3105 97.0546 23.9297ZM86.8202 23.9297C86.8202 26.9473 88.2558 28.5879 90.453 28.5977C92.6308 28.5879 94.0761 26.9473 94.0663 23.9297C94.0761 20.9023 92.6308 19.2715 90.453 19.2617C88.2558 19.2715 86.8202 20.9023 86.8202 23.9297ZM99.164 16.8594H102.797L106.723 26.4492H106.879L110.805 16.8594H114.437V31H111.586V21.7422H111.469L107.777 30.9414H105.824L102.133 21.7031H102.016V31H99.164V16.8594Z" fill="white"/>
<path d="M55.5598 37.2812V34.8594H67.1418V37.2812H62.8059V49H59.8957V37.2812H55.5598ZM81.2825 41.9297C81.2825 46.5488 78.4211 49.1953 74.6809 49.1953C70.9114 49.1953 68.0598 46.5293 68.0598 41.9297C68.0598 37.3105 70.9114 34.6641 74.6809 34.6641C78.4211 34.6641 81.2825 37.3105 81.2825 41.9297ZM71.0481 41.9297C71.0481 44.9473 72.4836 46.5879 74.6809 46.5977C76.8586 46.5879 78.3039 44.9473 78.2942 41.9297C78.3039 38.9023 76.8586 37.2715 74.6809 37.2617C72.4836 37.2715 71.0481 38.9023 71.0481 41.9297ZM83.3918 49V34.8594H89.0168C92.1321 34.8594 93.7141 36.3633 93.7043 38.4922C93.7141 40.1523 92.6203 41.1973 91.1653 41.5195V41.6562C92.7571 41.7344 94.261 43.0039 94.2707 45.0938C94.261 47.3398 92.5813 49 89.3879 49H83.3918ZM86.3215 46.5781H88.802C90.5012 46.5879 91.2336 45.8848 91.2239 44.8203C91.2336 43.6289 90.3254 42.7891 88.8801 42.7891H86.3215V46.5781ZM86.3215 40.7773H88.5871C89.8176 40.7871 90.7453 40.0938 90.7356 38.9609C90.7453 37.9355 89.9836 37.2422 88.6457 37.2422H86.3215V40.7773ZM96.1262 49V34.8594H105.618V37.2812H99.0559V40.7188H105.13V43.1406H99.0559V46.5781H105.638V49H96.1262Z" fill="white"/>
<defs>
<clipPath id="clip0_25_75">
<rect width="48.8136" height="50" fill="white"/>
</clipPath>
</defs>
</svg>
