<svg width="10" height="10" viewBox="0 0 10 10" fill="none" xmlns="http://www.w3.org/2000/svg">
<g clip-path="url(#clip0_429_8)">
<path d="M5 0C6.24083 0 7.42542 0.462917 8.33333 1.27375V0H9.16667V2.08333C9.16667 2.54292 8.79292 2.91667 8.33333 2.91667H6.25V2.08333H7.975C7.19708 1.29125 6.12625 0.833333 5 0.833333C2.7025 0.833333 0.833334 2.7025 0.833334 5C0.833334 7.2975 2.7025 9.16667 5 9.16667C7.2975 9.16667 9.16667 7.2975 9.16667 5H10C10 7.75708 7.75708 10 5 10C2.24292 10 0 7.75708 0 5C0 2.24292 2.24292 0 5 0Z" fill="white"/>
</g>
<defs>
<clipPath id="clip0_429_8">
<rect width="10" height="10" fill="white" transform="matrix(-1 0 0 1 10 0)"/>
</clipPath>
</defs>
</svg>
