<svg width="10" height="10" viewBox="0 0 10 10" fill="none" xmlns="http://www.w3.org/2000/svg">
<g clip-path="url(#clip0_429_6)">
<path d="M5 0C3.75917 0 2.57458 0.462917 1.66667 1.27375V0H0.833333V2.08333C0.833333 2.54292 1.20708 2.91667 1.66667 2.91667H3.75V2.08333H2.025C2.80292 1.29125 3.87375 0.833333 5 0.833333C7.2975 0.833333 9.16667 2.7025 9.16667 5C9.16667 7.2975 7.2975 9.16667 5 9.16667C2.7025 9.16667 0.833333 7.2975 0.833333 5H0C0 7.75708 2.24292 10 5 10C7.75708 10 10 7.75708 10 5C10 2.24292 7.75708 0 5 0Z" fill="white"/>
</g>
<defs>
<clipPath id="clip0_429_6">
<rect width="10" height="10" fill="white"/>
</clipPath>
</defs>
</svg>
