<svg width="16" height="16" viewBox="0 0 16 16" fill="none" xmlns="http://www.w3.org/2000/svg">
<path d="M3.68066 13.2666H7.22866L9.57466 15.61C9.70075 15.7367 9.85064 15.8373 10.0157 15.906C10.1808 15.9746 10.3579 16.01 10.5367 16.01C10.6543 16.0098 10.7714 15.9948 10.8853 15.9653C11.1155 15.9072 11.3263 15.7895 11.4964 15.624C11.6666 15.4585 11.7902 15.2511 11.8547 15.0226L15.9927 0.949951L3.68066 13.2666Z" fill="white"/>
<path d="M2.72461 12.3334L15.0479 0.00805664L0.985275 4.15539C0.756299 4.22051 0.548327 4.34436 0.381992 4.51466C0.215658 4.68497 0.0967413 4.8958 0.0370405 5.12625C-0.0226602 5.35669 -0.0210703 5.59875 0.0416524 5.82839C0.104375 6.05803 0.226051 6.26729 0.394608 6.43539L2.72461 8.76339V12.3334Z" fill="white"/>
</svg>
