<svg width="26" height="26" viewBox="0 0 26 26" fill="none" xmlns="http://www.w3.org/2000/svg">
<path d="M13.1001 18.2528C10.2557 18.2528 7.94729 15.9444 7.94729 13.1001C7.94729 10.2557 10.2557 7.94729 13.1001 7.94729C15.9444 7.94729 18.2528 10.2557 18.2528 13.1001C18.2528 15.9444 15.9444 18.2528 13.1001 18.2528ZM13.1001 8.97784C10.8225 8.97784 8.97784 10.8225 8.97784 13.1001C8.97784 15.3776 10.8225 17.2223 13.1001 17.2223C15.3776 17.2223 17.2223 15.3776 17.2223 13.1001C17.2223 10.8225 15.3776 8.97784 13.1001 8.97784ZM13.6153 5.3709V1.24868C13.6153 0.960121 13.3886 0.733398 13.1001 0.733398C12.8115 0.733398 12.5848 0.960121 12.5848 1.24868V5.3709C12.5848 5.65945 12.8115 5.88618 13.1001 5.88618C13.3886 5.88618 13.6153 5.65945 13.6153 5.3709ZM13.6153 24.9515V20.8292C13.6153 20.5407 13.3886 20.314 13.1001 20.314C12.8115 20.314 12.5848 20.5407 12.5848 20.8292V24.9515C12.5848 25.24 12.8115 25.4667 13.1001 25.4667C13.3886 25.4667 13.6153 25.24 13.6153 24.9515ZM5.88618 13.1001C5.88618 12.8115 5.65945 12.5848 5.3709 12.5848H1.24868C0.960121 12.5848 0.733398 12.8115 0.733398 13.1001C0.733398 13.3886 0.960121 13.6153 1.24868 13.6153H5.3709C5.65945 13.6153 5.88618 13.3886 5.88618 13.1001ZM25.4667 13.1001C25.4667 12.8115 25.24 12.5848 24.9515 12.5848H20.8292C20.5407 12.5848 20.314 12.8115 20.314 13.1001C20.314 13.3886 20.5407 13.6153 20.8292 13.6153H24.9515C25.24 13.6153 25.4667 13.3886 25.4667 13.1001ZM19.1288 7.7927L22.2205 4.70104C22.4266 4.49493 22.4266 4.17545 22.2205 3.96934C22.0144 3.76323 21.6949 3.76323 21.4888 3.96934L18.3971 7.06101C18.191 7.26712 18.191 7.58659 18.3971 7.7927C18.5002 7.89576 18.6341 7.94729 18.7578 7.94729C18.8815 7.94729 19.0258 7.89576 19.1185 7.7927H19.1288ZM4.70104 22.2205L7.7927 19.1288C7.99882 18.9227 7.99882 18.6032 7.7927 18.3971C7.58659 18.191 7.26712 18.191 7.06101 18.3971L3.96934 21.4888C3.76323 21.6949 3.76323 22.0144 3.96934 22.2205C4.0724 22.3235 4.20637 22.3751 4.33004 22.3751C4.4537 22.3751 4.59798 22.3235 4.69073 22.2205H4.70104ZM7.7927 7.7927C7.99882 7.58659 7.99882 7.26712 7.7927 7.06101L4.70104 3.97965C4.49493 3.77354 4.17545 3.77354 3.96934 3.97965C3.76323 4.18576 3.76323 4.50523 3.96934 4.71134L7.06101 7.80301C7.16407 7.90607 7.29804 7.95759 7.4217 7.95759C7.54537 7.95759 7.68965 7.90607 7.7824 7.80301L7.7927 7.7927ZM22.2205 22.2205C22.4266 22.0144 22.4266 21.6949 22.2205 21.4888L19.1288 18.3971C18.9227 18.191 18.6032 18.191 18.3971 18.3971C18.191 18.6032 18.191 18.9227 18.3971 19.1288L21.4888 22.2205C21.5918 22.3235 21.7258 22.3751 21.8495 22.3751C21.9731 22.3751 22.1174 22.3235 22.2102 22.2205H22.2205Z" fill="white"/>
</svg>
