<svg width="14" height="16" viewBox="0 0 14 16" fill="none" xmlns="http://www.w3.org/2000/svg">
<path d="M10.3334 2.66667V1.33333C10.3334 0.979711 10.1929 0.640573 9.94285 0.390524C9.6928 0.140476 9.35366 0 9.00004 0L5.00004 0C4.64642 0 4.30728 0.140476 4.05723 0.390524C3.80718 0.640573 3.66671 0.979711 3.66671 1.33333V2.66667H0.333374V4H1.66671V14C1.66671 14.5304 1.87742 15.0391 2.25249 15.4142C2.62757 15.7893 3.13627 16 3.66671 16H10.3334C10.8638 16 11.3725 15.7893 11.7476 15.4142C12.1227 15.0391 12.3334 14.5304 12.3334 14V4H13.6667V2.66667H10.3334ZM6.33337 11.3333H5.00004V7.33333H6.33337V11.3333ZM9.00004 11.3333H7.66671V7.33333H9.00004V11.3333ZM9.00004 2.66667H5.00004V1.33333H9.00004V2.66667Z" fill="white"/>
</svg>
