<svg width="11" height="13" viewBox="0 0 11 13" fill="none" xmlns="http://www.w3.org/2000/svg">
<path d="M0.980957 4.5L4.81659 1.09055C5.19548 0.753758 5.76643 0.753758 6.14532 1.09055L9.98096 4.5" stroke="white" stroke-width="0.6" stroke-linecap="round"/>
<path d="M7.98096 4.5H9.88096C9.93619 4.5 9.98096 4.45523 9.98096 4.4V2.5" stroke="white" stroke-width="0.6" stroke-linecap="round"/>
<mask id="path-3-inside-1_440_63" fill="white">
<path d="M9.71094 7.14099C10.0958 7.53049 10.0958 8.15704 9.71101 8.54658L6.2085 12.0923C5.81701 12.4886 5.17713 12.4886 4.78564 12.0923L1.28313 8.54658C0.898342 8.15704 0.898372 7.53049 1.2832 7.14099L4.78571 3.59597C5.17719 3.19974 5.81695 3.19974 6.20843 3.59597L9.71094 7.14099Z"/>
</mask>
<path d="M6.20843 3.59597L5.63934 4.15823L6.20843 3.59597ZM6.2085 12.0923L6.77764 12.6545L6.2085 12.0923ZM4.78564 12.0923L4.2165 12.6545L4.78564 12.0923ZM9.71101 8.54658L10.2802 9.10879L9.71101 8.54658ZM9.71101 8.54658L9.14187 7.98437L5.63936 11.5301L6.2085 12.0923L6.77764 12.6545L10.2802 9.10879L9.71101 8.54658ZM4.78564 12.0923L5.35478 11.5301L1.85227 7.98437L1.28313 8.54658L0.713989 9.10879L4.2165 12.6545L4.78564 12.0923ZM1.2832 7.14099L1.85229 7.70325L5.3548 4.15823L4.78571 3.59597L4.21662 3.03371L0.714113 6.57873L1.2832 7.14099ZM6.20843 3.59597L5.63934 4.15823L9.14185 7.70325L9.71094 7.14099L10.28 6.57873L6.77752 3.03371L6.20843 3.59597ZM4.78571 3.59597L5.3548 4.15823C5.43309 4.07899 5.56105 4.07899 5.63934 4.15823L6.20843 3.59597L6.77752 3.03371C6.07286 2.32049 4.92128 2.3205 4.21662 3.03371L4.78571 3.59597ZM1.28313 8.54658L1.85227 7.98437C1.77532 7.90646 1.77532 7.78115 1.85229 7.70325L1.2832 7.14099L0.714113 6.57873C0.0214227 7.27982 0.0213675 8.40762 0.713989 9.10879L1.28313 8.54658ZM6.2085 12.0923L5.63936 11.5301C5.56106 11.6094 5.43308 11.6094 5.35478 11.5301L4.78564 12.0923L4.2165 12.6545C4.92119 13.3679 6.07296 13.3679 6.77764 12.6545L6.2085 12.0923ZM9.71101 8.54658L10.2802 9.10879C10.9728 8.40762 10.9727 7.27982 10.28 6.57873L9.71094 7.14099L9.14185 7.70325C9.21882 7.78115 9.21882 7.90646 9.14187 7.98437L9.71101 8.54658Z" fill="white" mask="url(#path-3-inside-1_440_63)"/>
</svg>
